<?xml version="1.0" standalone="no"?>
<!DOCTYPE svg PUBLIC "-//W3C//DTD SVG 1.1//EN" "http://www.w3.org/Graphics/SVG/1.1/DTD/svg11.dtd" >
<svg xmlns="http://www.w3.org/2000/svg" xmlns:xlink="http://www.w3.org/1999/xlink" version="1.1">
<metadata>
Created by FontForge 20150824 at Thu May 12 16:43:09 2016
 By Everything Fonts
Copyright (c) 2014 by Youssef Habchi. All rights reserved.
</metadata>
<defs>
<font id="Marbre" horiz-adv-x="632" >
  <font-face 
    font-family="Marbre"
    font-weight="300"
    font-stretch="normal"
    units-per-em="1000"
    panose-1="2 0 5 6 8 0 0 2 0 4"
    ascent="800"
    descent="-200"
    x-height="715"
    cap-height="800"
    bbox="20 -204.05 887 1007"
    underline-thickness="49"
    underline-position="-195"
    unicode-range="U+0020-2122"
  />
<missing-glyph horiz-adv-x="326" 
 />
    <glyph glyph-name=".notdef" horiz-adv-x="326" 
 />
    <glyph glyph-name=".null" horiz-adv-x="0" 
 />
    <glyph glyph-name="nonmarkingreturn" horiz-adv-x="333" 
 />
    <glyph glyph-name="space" unicode=" " horiz-adv-x="300" 
 />
    <glyph glyph-name="exclam" unicode="!" horiz-adv-x="232" 
d="M92 235v565h48v-565h-48zM115 93q18 0 32.5 -13.5t14.5 -32.5q0 -18 -14 -32.5t-33 -14.5q-18 0 -31.5 14t-13.5 33q0 18 13 32t32 14z" />
    <glyph glyph-name="quotedbl" unicode="&#x22;" horiz-adv-x="291" 
d="M130 661h-10v139h10v-139zM171 661h-10v139h10v-139z" />
    <glyph glyph-name="numbersign" unicode="#" horiz-adv-x="490" 
d="M396 325v-9h-71l-75 -316h-48l76 316h-105l-76 -316h-47l75 316h-75v9h77l35 149h-68v9h71l75 317h48l-76 -317h105l76 317h47l-75 -317h75v-9h-77l-36 -149h69zM175 325h105l35 149h-105z" />
    <glyph glyph-name="dollar" unicode="$" horiz-adv-x="536" 
d="M365 401q53 -46 67 -115.5t-6 -130.5t-68 -106t-108 -48v-45h-9v45q-33 0 -63.5 11.5t-50.5 28t-35.5 32.5t-22.5 27l-7 12h10q3 -4 7.5 -11t21.5 -24.5t35 -31.5t46.5 -25t58.5 -12v394q-8 3 -27 9l-28.5 9t-23 9.5t-23.5 13.5q-92 65 -75 163q8 47 38 86t79 56
q33 10 59 8v44h9v-44q25 -3 47.5 -15.5t36.5 -27.5t24.5 -30t14.5 -25l5 -10h-9l-5 10t-14.5 22t-24 28.5t-33 24.5t-42.5 15l1 -295q84 -27 115 -52zM121 517q30 -32 119 -61v293q-43 2 -75 -17q-53 -31 -68 -102t24 -113zM250 9q57 3 97 48t51 103.5t-9 118.5t-71 89
q-37 21 -68 31v-390z" />
    <glyph glyph-name="percent" unicode="%" horiz-adv-x="571" 
d="M433 800h47l-343 -800h-47zM188 481q-42 0 -70 48q-29 48 -29 111t29 112q28 48 70 48q41 0 69 -48q29 -49 29 -112t-29 -111q-28 -48 -69 -48zM188 792q-30 -1 -47 -47.5t-17 -104.5t16.5 -103.5t47.5 -47.5q32 1 47 46.5t15 106.5q0 60 -15 104.5t-47 45.5zM453 271
q29 -49 29 -112t-29 -111q-28 -48 -69 -48q-42 0 -70 48q-29 48 -29 111t29 112q28 48 70 48q40 0 69 -48zM384 8q32 1 47 47t15 106q0 59 -16 104t-46 46q-31 -1 -47 -46.5t-16 -105.5t15.5 -105t47.5 -46z" />
    <glyph glyph-name="ampersand" unicode="&#x26;" horiz-adv-x="521" 
d="M385 149q19 54 35 152t15 179h10q2 -87 -14.5 -182.5t-39.5 -155.5l76 -142h-63q-35 72 -44 88q-56 -86 -125 -90q-72 -5 -115 56q-44 62 -50 148t27 157q29 64 96 104q-49 117 -52 174q-4 58 26 111q28 49 76 52q47 3 83 -33q36 -35 40 -97q2 -33 -9.5 -63t-37 -56
t-39 -37.5t-39.5 -30.5q-6 -4 -8 -6q145 -313 152 -328zM196 456q-29 -22 -46 -39t-31 -53t-11 -82q2 -29 11 -69.5t24.5 -88t42.5 -79t59 -29.5q26 1 58.5 25.5t52.5 56.5q-94 194 -160 358zM231 485q46 33 75.5 92t27.5 90q-4 53 -31.5 91t-55.5 36q-35 -2 -51.5 -33.5
t-14.5 -62.5q7 -118 50 -213z" />
    <glyph glyph-name="quotesingle" unicode="'" horiz-adv-x="250" 
d="M130 661h-10v139h10v-139z" />
    <glyph glyph-name="parenleft" unicode="(" horiz-adv-x="418" 
d="M336 0l1 -3q-100 63 -158.5 170.5t-58.5 229.5q0 120 57.5 227t159.5 175h11q-94 -59 -139.5 -165t-45.5 -235q0 -128 45 -234.5t138 -164.5h-10z" />
    <glyph glyph-name="parenright" unicode=")" horiz-adv-x="418" 
d="M71 0l1 3q93 58 138 164.5t45 234.5q0 129 -45.5 235t-139.5 165h11q100 -63 158.5 -171.5t58.5 -230.5q0 -120 -57.5 -226t-159.5 -174h-10z" />
    <glyph glyph-name="asterisk" unicode="*" horiz-adv-x="470" 
d="M430 684l-174 -85l174 -199h-41l-154 176l-154 -176h-41l174 199l-174 85v9l174 -85v192h41v-192l175 85v-9z" />
    <glyph glyph-name="plus" unicode="+" horiz-adv-x="653" 
d="M583 312h-233v-252h-47v252h-233v9h233v252h47v-252h233v-9z" />
    <glyph glyph-name="comma" unicode="," horiz-adv-x="222" 
d="M108 91q33 0 49 -24.5t16 -50.5q0 -62 -76 -126h-18q10 9 21.5 21t25.5 30.5t22.5 36t8 35t-14.5 28.5q-1 -5 -3 -11.5t-14.5 -18t-30.5 -11.5q-17 0 -28 12.5t-11 30.5q0 21 15 34.5t38 13.5z" />
    <glyph glyph-name="hyphen" unicode="-" horiz-adv-x="612" 
d="M109 293v48h392v-48h-392z" />
    <glyph glyph-name="period" unicode="." horiz-adv-x="243" 
d="M75 47q0 18 13 32t32 14q18 0 32.5 -13.5t14.5 -32.5q0 -18 -14 -32.5t-33 -14.5q-18 0 -31.5 14t-13.5 33z" />
    <glyph glyph-name="slash" unicode="/" horiz-adv-x="430" 
d="M67 0h-47l343 800h47z" />
    <glyph glyph-name="zero" unicode="0" 
d="M490 679q71 -122 71.5 -281t-71.5 -278q-72 -116 -173 -120h-1q-100 0 -174 120q-72 119 -71.5 278t71.5 281q69 116 175 120q102 0 173 -120zM316 8q58 1 103 64.5t65.5 151.5t21.5 179q-1 88 -24.5 176.5t-68 149.5t-96.5 63q-55 0 -99.5 -61.5t-67 -149.5t-23.5 -178
q1 -89 24 -178.5t67.5 -152.5t97.5 -64z" />
    <glyph glyph-name="one" unicode="1" horiz-adv-x="500" 
d="M340 800v-800h-47v750l-212 -177h-11z" />
    <glyph glyph-name="two" unicode="2" horiz-adv-x="531" 
d="M461 0h-391q4 8 11.5 22t30.5 57.5t45.5 86.5t53 101.5t56.5 110t52.5 105.5t45 94.5t30.5 70t12 38.5q0 47 -25.5 76t-62.5 29h-156v9h156q57 0 97 -31q32 -25 40 -60.5t-11 -73.5l-317 -626h333v-9z" />
    <glyph glyph-name="three" unicode="3" horiz-adv-x="562" 
d="M432 481q60 -80 60 -194q0 -115 -60 -195q-69 -92 -177 -92h-185v9h185q14 0 31.5 3.5t47 20t51.5 43.5t39 82t17 129q0 70 -16.5 124.5t-39.5 84t-51.5 48t-47 24t-31.5 5.5h-134l234 219l-285 1v7h353l-224 -218q65 -1 75 -1q91 -10 158 -100z" />
    <glyph glyph-name="four" unicode="4" horiz-adv-x="542" 
d="M472 473v-9h-75v-464h-47v464h-330l377 335v-326h75zM97 473h253v225z" />
    <glyph glyph-name="five" unicode="5" horiz-adv-x="504" 
d="M394 481q60 -80 60 -194q0 -115 -60 -195q-69 -92 -177 -92h-147v9h147q14 0 31.5 3.5t46.5 20t51 43.5t39 82t17 129q0 70 -16.5 124.5t-39.5 84t-51 48t-46.5 24t-31.5 5.5h-147v227h251v-9h-204v-209q107 -1 119 -1q91 -10 158 -100z" />
    <glyph glyph-name="six" unicode="6" horiz-adv-x="595" 
d="M459 484q60 -88 60 -200.5t-60 -197.5q-59 -82 -146 -86q-96 0 -171 120q-72 119 -71.5 278t71.5 281q73 120 174 120q19 0 37 -8t31 -18.5t26.5 -28t20.5 -29t17.5 -29.5t12.5 -21h-11q-65 127 -134 127q-52 0 -96.5 -61t-68 -149.5t-24.5 -178.5q17 46 41 81
q25 38 63.5 62t82.5 24q41 0 80 -24t65 -62zM313 8q69 1 113 89t45 190q-1 99 -47 185t-111 88q-107 0 -167 -146q-14 -32 -17 -56q7 -98 40 -188.5t81 -132.5q33 -28 63 -29z" />
    <glyph glyph-name="seven" unicode="7" horiz-adv-x="470" 
d="M50 800h390l-343 -800h-47l339 791h-339v9z" />
    <glyph glyph-name="eight" unicode="8" horiz-adv-x="631" 
d="M489 486q71 -88 71.5 -201.5t-71.5 -198.5q-72 -82 -174 -86q-97 0 -173 86q-72 85 -71.5 198.5t71.5 201.5q58 71 146 83q-58 9 -90 33q-49 35 -48.5 81t48.5 82q44 33 118 35q72 0 118 -35q48 -36 48.5 -82t-48.5 -81q-33 -24 -90 -33q86 -10 145 -83zM187 684
q0 -41 36 -75.5t93 -34.5q54 1 91 35.5t37 74.5t-37.5 74t-90.5 35q-56 -1 -92.5 -34.5t-36.5 -74.5zM316 11q59 0 103 44.5t64 105.5t21 127q-1 99 -56 185.5t-132 88.5q-55 -1 -99 -44t-66.5 -104.5t-23.5 -125.5q1 -102 53.5 -189.5t135.5 -87.5z" />
    <glyph glyph-name="nine" unicode="9" horiz-adv-x="589" 
d="M131 316q-60 88 -60 200.5t60 197.5q63 85 145 85q97 0 171 -119q72 -119 71.5 -278.5t-71.5 -281.5q-72 -120 -174 -120q-22 0 -42.5 9.5t-37.5 29.5t-26.5 32.5t-24 37.5t-14.5 26h11q65 -127 134 -127q52 0 96.5 60.5t68 149t24.5 178.5l-3 -6q-3 -7 -7 -16t-9 -19.5
t-11 -21l-10 -17.5q-26 -38 -64.5 -62t-81.5 -24q-42 0 -80.5 23.5t-64.5 62.5zM276 791q-69 0 -113 -88t-45 -190q1 -100 46.5 -185.5t114.5 -87.5q70 2 119 63t63 138q-7 100 -39.5 191t-81.5 131q-34 28 -64 28z" />
    <glyph glyph-name="colon" unicode=":" horiz-adv-x="253" 
d="M126 400q-19 0 -32.5 13t-13.5 33q0 19 13 33t33 14q19 0 33 -13t14 -33q0 -19 -13.5 -32.5t-33.5 -14.5zM126 224q19 0 33 -13t14 -33q0 -18 -14 -32.5t-33 -14.5q-18 0 -32 13.5t-14 33.5q0 19 13 32.5t33 13.5z" />
    <glyph glyph-name="semicolon" unicode=";" horiz-adv-x="204" 
d="M98 91q33 0 49 -24.5t16 -50.5q0 -62 -76 -126h-18q37 32 64.5 77.5t-2.5 73.5q-1 -5 -3 -11.5t-14 -18t-30 -11.5q-17 0 -28.5 12.5t-11.5 30.5q0 21 16 34.5t38 13.5zM90 273q-18 0 -32 13.5t-14 32.5q0 18 13.5 32t32.5 14t33 -13t14 -33q0 -18 -13.5 -32t-33.5 -14z
" />
    <glyph glyph-name="less" unicode="&#x3c;" horiz-adv-x="491" 
d="M427 572l-343 -287l343 -286h-64l-343 286l343 287h64z" />
    <glyph glyph-name="equal" unicode="=" horiz-adv-x="571" 
d="M109 398v47h392v-47h-392zM109 188v47h392v-47h-392z" />
    <glyph glyph-name="greater" unicode="&#x3e;" horiz-adv-x="491" 
d="M407 286l-343 287h64l343 -287l-343 -286h-64z" />
    <glyph glyph-name="question" unicode="?" horiz-adv-x="437" 
d="M323 769q44 -35 44 -83q0 -19 -16 -51q-16 -26 -39.5 -68t-63 -135t-39.5 -142v-50h-44q-6 109 22 165q126 250 126 281q0 47 -25 76t-62 29h-156v9h156q57 0 97 -31zM188 93q18 0 32.5 -13.5t14.5 -32.5q0 -18 -14 -32.5t-33 -14.5q-18 0 -31.5 14t-13.5 33q0 18 13 32
t32 14z" />
    <glyph glyph-name="at" unicode="@" horiz-adv-x="794" 
d="M732 304q0 -41 -5.5 -89.5t-17.5 -99t-36.5 -84t-57.5 -33.5q-14 0 -22.5 3t-19 14t-16 39t-5.5 72q-26 -52 -69 -89t-97 -37q-80 0 -143 86q-59 86 -58.5 199.5t58.5 201.5q25 37 62.5 61.5t80.5 24.5q90 0 157 -111v111h44v-426v-25t-0.5 -23.5t-0.5 -21t0.5 -19.5
t1.5 -16.5t3 -13.5t5 -9.5t7 -6.5t9 -2q28 0 49 33t31.5 82.5t15.5 95.5t5 83q-2 199 -95 341q-44 67 -100 102.5t-117 34.5q-128 -2 -216.5 -144t-86.5 -341q2 -201 94 -341q44 -67 100.5 -102.5t117.5 -34.5q81 2 149 62l13 -14q-75 -65 -162 -67h-2q-68 0 -128 40
t-103 106q-96 146 -98 351q-2 209 90 354q40 64 100.5 107t130.5 43q69 0 130 -40t104 -106q96 -146 98 -351zM386 6q65 0 109.5 91t45.5 192q-1 63 -20 126t-55.5 107t-78.5 45q-67 -2 -111 -89t-45 -189q1 -100 45.5 -189.5t109.5 -93.5z" />
    <glyph glyph-name="A" unicode="A" horiz-adv-x="452" 
d="M367 0l-92 377h-141l-88 -377h-9l186 800l193 -800h-49zM136 386h137l-70 290z" />
    <glyph glyph-name="B" unicode="B" horiz-adv-x="510" 
d="M397 435q58 -75 58 -177q0 -101 -58 -175q-66 -83 -173 -83h-129v800h124q59 0 101 -39q46 -43 46 -103q0 -61 -46 -104q-24 -23 -58 -33q78 -16 135 -86zM146 791v-263h73q44 0 67.5 36t23.5 94q0 59 -26.5 96t-64.5 37h-73zM146 9h79q14 0 30.5 3t45 17.5t50 39t38 74
t16.5 115.5q0 57 -13.5 103t-32.5 73.5t-44 47t-43.5 27t-35.5 10.5h-90v-510z" />
    <glyph glyph-name="C" unicode="C" horiz-adv-x="567" 
d="M316 8q43 0 92.5 34t80.5 93h8q-28 -52 -57 -79q-57 -55 -124 -55q-100 0 -174 119q-72 119 -71.5 278.5t71.5 281.5q72 120 174 120q66 0 124 -56q29 -27 57 -79h-10q-31 59 -79.5 93t-91.5 34q-52 0 -96.5 -61t-68 -149.5t-24.5 -178.5q1 -90 24.5 -180t68 -152.5
t96.5 -62.5z" />
    <glyph glyph-name="D" unicode="D" horiz-adv-x="565" 
d="M479 552q24 -72 24 -152q0 -101 -42 -192.5t-121 -149.5t-175 -58h-70v800h69q108 -3 192 -69q86 -72 123 -179zM143 9h21q60 0 112 34q105 66 153 215q22 67 22 142q0 73 -22 142q-48 147 -153 215q-54 34 -112 34h-21v-782z" />
    <glyph glyph-name="E" unicode="E" horiz-adv-x="503" 
d="M143 9h290v-9h-338v800h338v-9h-290v-256h290v-9h-290v-517z" />
    <glyph glyph-name="F" unicode="F" horiz-adv-x="493" 
d="M143 526v-526h-48v800h338v-9h-290v-256h290v-9h-290z" />
    <glyph glyph-name="G" unicode="G" horiz-adv-x="593" 
d="M518 474q14 -120 -17.5 -248t-115.5 -193q-41 -32 -89 -32q-36 0 -67.5 19.5t-49.5 41t-42 58.5q-67 119 -66.5 278.5t66.5 281.5q27 50 68.5 85t91.5 35q62 0 115 -56q25 -26 52 -79h-12q-29 60 -72.5 93.5t-82.5 33.5q-49 0 -89.5 -61t-62 -149.5t-22.5 -178.5
q0 -45 9.5 -106.5t28 -129t54 -113.5t81.5 -46q49 0 90 62.5t62.5 152.5t22.5 180q0 31 -3 62h-171v9h221z" />
    <glyph glyph-name="H" unicode="H" horiz-adv-x="561" 
d="M433 800h48l-1 -800h-47v526h-290v-526h-48v800h48v-265h290v265z" />
    <glyph glyph-name="I" unicode="I" horiz-adv-x="238" 
d="M95 0v800h48v-800h-48z" />
    <glyph glyph-name="J" unicode="J" horiz-adv-x="338" 
d="M50 0v7q35 0 61 9.5t41.5 28.5t25.5 39t14.5 50t5.5 51t1 53v561h48v-554q0 -5 -0.5 -14t-4 -34.5t-10 -48.5t-21 -51t-34.5 -48.5t-53 -34.5t-74 -14z" />
    <glyph glyph-name="K" unicode="K" horiz-adv-x="536" 
d="M486 800l-307 -263l307 -537h-54l-289 504v-504h-48v800h48v-276l326 276h17z" />
    <glyph glyph-name="L" unicode="L" horiz-adv-x="526" 
d="M486 1l-391 -1v800h48v-790h343v-9z" />
    <glyph glyph-name="M" unicode="M" horiz-adv-x="594" 
d="M467 800h47v-800h-47v761l-181 -761l-182 762v-762h-9v800h49l162 -678z" />
    <glyph glyph-name="N" unicode="N" horiz-adv-x="566" 
d="M486 0l-382 781v-781h-9v800h53l329 -672v672h9v-800z" />
    <glyph glyph-name="O" unicode="O" 
d="M490 680q71 -122 71.5 -281.5t-71.5 -278.5q-72 -115 -173 -119q-101 0 -175 119q-72 119 -71.5 278.5t71.5 281.5q69 116 175 120q52 0 96.5 -33.5t76.5 -86.5zM318 9q58 1 102.5 64.5t64.5 151t21 178.5q-1 90 -23 177.5t-66.5 149t-100.5 62.5q-57 -2 -101.5 -63.5
t-65.5 -148t-22 -177.5q2 -92 24 -180.5t67 -151t100 -62.5z" />
    <glyph glyph-name="P" unicode="P" horiz-adv-x="423" 
d="M245 515h-102v-515h-48v800h131q57 0 97 -42t40 -101q0 -52 -33 -92t-85 -50zM143 791v-267h83q41 0 63 37t22 96q0 60 -24.5 97t-60.5 37h-83z" />
    <glyph glyph-name="Q" unicode="Q" horiz-adv-x="634" 
d="M562 0h-11l-74 100q-63 -95 -160 -99q-101 0 -175 119q-72 119 -71.5 278.5t71.5 281.5q68 116 175 120q52 0 96.5 -33.5t76.5 -86.5q74 -123 73 -287t-81 -285zM316 8q74 0 135 128l-136 183h12l128 -173q51 121 51 257q-1 88 -24.5 176.5t-68 149.5t-96.5 63
q-55 -2 -99.5 -63.5t-67 -148.5t-23.5 -177q1 -89 24 -178.5t67 -153t98 -63.5z" />
    <glyph glyph-name="R" unicode="R" horiz-adv-x="526" 
d="M249 516l237 -516h-48l-236 515h-59v-515h-48v800h131q57 0 97 -42t40 -101q0 -51 -32 -91t-82 -50zM143 791v-267h83q41 0 63 37t22 96q0 60 -24.5 97t-60.5 37h-83z" />
    <glyph glyph-name="S" unicode="S" horiz-adv-x="515" 
d="M138 547q29 -33 122 -65.5t122 -57.5q53 -49 66.5 -123.5t-7.5 -140t-70 -112.5t-111 -47q-33 0 -64 12t-51.5 29.5t-36 35t-22.5 29.5l-7 12h10q3 -4 8 -11.5t21.5 -26.5t35 -33.5t47.5 -26.5t59 -12q59 0 100.5 47.5t53.5 110.5t-7.5 127.5t-71.5 95.5q-37 22 -96 41.5
t-83 37.5q-92 69 -75 172q10 64 57 111.5t111 47.5q45 0 81 -29t50 -57l14 -29h-9q-2 4 -5.5 11.5t-16.5 26t-27 33t-37.5 26t-48.5 11.5q-40 0 -74.5 -27t-51.5 -64.5t-14.5 -81t28.5 -73.5z" />
    <glyph glyph-name="T" unicode="T" horiz-adv-x="451" 
d="M411 791h-172v-791h-47v791h-172v9h391v-9z" />
    <glyph glyph-name="U" unicode="U" horiz-adv-x="552" 
d="M472 799l-1 -562q0 -5 -0.5 -13.5t-4.5 -33.5t-10.5 -47.5t-21 -49.5t-34.5 -47t-52 -33.5t-72 -13.5q-53 0 -93 24.5t-59 59.5t-30 70t-12 59l-2 25v562h48v-561q0 -35 1 -53.5t5 -50.5t13.5 -50t25 -38t42 -29t61.5 -9q51 0 88.5 23.5t55.5 57.5t28.5 67.5t11.5 57.5
l2 23v562h10z" />
    <glyph glyph-name="V" unicode="V" horiz-adv-x="453" 
d="M406 800h9l-185 -800l-194 800h49l164 -676z" />
    <glyph glyph-name="W" unicode="W" horiz-adv-x="595" 
d="M562 800l-186 -800l-67 279l-65 -279l-194 800h49l164 -676l41 175l-122 501h50l96 -397l92 397h9l-96 -416l63 -260l157 676h9z" />
    <glyph glyph-name="X" unicode="X" horiz-adv-x="538" 
d="M478 0h-51l-155 366l-174 -366h-10l179 377l-179 423h51l155 -366l175 366h9l-179 -377z" />
    <glyph glyph-name="Y" unicode="Y" horiz-adv-x="455" 
d="M414 800h8l-171 -290v-510h-48v510l-171 290h48l167 -284z" />
    <glyph glyph-name="Z" unicode="Z" horiz-adv-x="501" 
d="M440 0h-390l339 791h-339v9h390l-339 -791h339v-9z" />
    <glyph glyph-name="bracketleft" unicode="[" horiz-adv-x="390" 
d="M320 790h-155v-780h155v-10h-203v800h203v-10z" />
    <glyph glyph-name="backslash" unicode="\" horiz-adv-x="431" 
d="M20 800h47l344 -800h-48z" />
    <glyph glyph-name="bracketright" unicode="]" horiz-adv-x="395" 
d="M225 790h-155v10h203v-800h-203v10h155v780z" />
    <glyph glyph-name="asciicircum" unicode="^" horiz-adv-x="347" 
d="M175 754l-90 -97h-44l134 146l132 -145h-44z" />
    <glyph glyph-name="underscore" unicode="_" horiz-adv-x="628" 
d="M117 0v47h392v-47h-392z" />
    <glyph glyph-name="a" unicode="a" horiz-adv-x="413" 
d="M334 0l-82 337h-126l-79 -337h-8l166 715l173 -715h-44zM128 345h122l-62 260z" />
    <glyph glyph-name="b" unicode="b" horiz-adv-x="462" 
d="M358 388q52 -68 52 -157q0 -90 -52 -156q-56 -74 -154 -74h-114v713h110q52 0 90 -35q41 -35 41 -92q0 -56 -41 -92q-21 -21 -52 -30q72 -15 120 -77zM136 706v-235h64q39 0 60 32t21 84q0 54 -23 86.5t-58 32.5h-64zM136 9h69q13 0 27.5 2.5t40 15.5t44.5 35t33.5 66
t14.5 103q0 63 -17 110t-43.5 71.5t-48 36t-41.5 14.5h-79v-454z" />
    <glyph glyph-name="c" unicode="c" horiz-adv-x="501" 
d="M279 7q39 0 82.5 30t72.5 83h7q-26 -46 -51 -70q-51 -49 -111 -49q-88 0 -155 106q-64 107 -63.5 248.5t63.5 250.5q65 107 155 107q59 0 111 -50q25 -24 51 -70h-9q-28 53 -71 83t-82 30q-47 0 -86.5 -54.5t-60 -133.5t-21.5 -159q1 -80 21.5 -160.5t60 -136t86.5 -55.5
z" />
    <glyph glyph-name="d" unicode="d" horiz-adv-x="513" 
d="M368 609q87 -102 87 -251q0 -148 -87 -252q-91 -106 -215 -106h-63v716h62q61 0 117.5 -28.5t98.5 -78.5zM133 8q116 0 195.5 107.5t79.5 242.5t-79.5 242.5t-195.5 107.5v-700z" />
    <glyph glyph-name="e" unicode="e" horiz-adv-x="463" 
d="M133 8h260v-8h-303v717h303v-8h-260v-230h260v-8h-260v-463z" />
    <glyph glyph-name="f" unicode="f" horiz-adv-x="453" 
d="M133 472v-472h-43v717h303v-8h-260v-229h260v-8h-260z" />
    <glyph glyph-name="g" unicode="g" horiz-adv-x="525" 
d="M461 425q12 -108 -16 -222.5t-103 -172.5q-36 -29 -80 -29q-32 0 -60 17.5t-44 37t-38 52.5q-60 107 -59.5 249t59.5 252q23 45 60.5 76.5t82.5 31.5q56 0 103 -50q21 -22 47 -71h-11q-27 53 -65.5 83.5t-73.5 30.5q-43 0 -80 -54.5t-56 -134t-20 -160.5q0 -40 8.5 -95.5
t25 -115.5t48.5 -101.5t73 -41.5q44 0 81 56t56 137t20 161q0 27 -3 56h-153v8h198z" />
    <glyph glyph-name="h" unicode="h" horiz-adv-x="516" 
d="M393 717h43l-1 -717h-42v471h-260v-471h-43v717h43v-238h260v238z" />
    <glyph glyph-name="i" unicode="i" horiz-adv-x="223" 
d="M90 0v717h43v-717h-43z" />
    <glyph glyph-name="j" unicode="j" horiz-adv-x="318" 
d="M50 0v6q31 0 54.5 8.5t37.5 26t23 35t12.5 44.5t4.5 45.5t1 47.5v502h43v-496v-12.5t-3.5 -30.5t-9 -43.5t-18.5 -46t-31 -43.5t-47.5 -30.5t-66.5 -12.5z" />
    <glyph glyph-name="k" unicode="k" horiz-adv-x="490" 
d="M440 717l-275 -236l275 -481h-48l-259 452v-452h-43v717h43v-247l292 247h15z" />
    <glyph glyph-name="l" unicode="l" horiz-adv-x="480" 
d="M440 1l-350 -1v717h43v-708h307v-8z" />
    <glyph glyph-name="m" unicode="m" horiz-adv-x="545" 
d="M423 716h42v-716h-42v681l-162 -681l-163 682v-682h-8v716h44l145 -607z" />
    <glyph glyph-name="n" unicode="n" horiz-adv-x="520" 
d="M440 0l-342 699v-699h-8v716h47l295 -601v601h8v-716z" />
    <glyph glyph-name="o" unicode="o" horiz-adv-x="562" 
d="M437 609q64 -110 64.5 -252t-64.5 -249q-64 -103 -155 -107q-91 0 -157 107q-65 107 -64.5 249t64.5 252q61 104 157 108q46 0 86.5 -30t68.5 -78zM283 8q52 1 91.5 58t57.5 135t19 160q-1 81 -20.5 159t-59.5 133.5t-90 56.5q-51 -2 -91 -57.5t-59 -133t-20 -158.5
q2 -82 22 -161.5t60 -135.5t90 -56z" />
    <glyph glyph-name="p" unicode="p" horiz-adv-x="390" 
d="M224 462h-91v-462h-43v717h117q51 0 87 -37.5t36 -90.5q0 -47 -29.5 -82.5t-76.5 -44.5zM133 709v-239h74q37 0 57 33.5t20 85.5q0 54 -22 87t-55 33h-74z" />
    <glyph glyph-name="q" unicode="q" horiz-adv-x="563" 
d="M501 0h-10l-66 90q-55 -85 -143 -89q-90 0 -157 106q-65 107 -64.5 249.5t64.5 252.5q60 104 157 108q46 0 86 -30.5t69 -77.5q66 -110 65 -256.5t-73 -255.5zM281 7q67 0 121 115l-122 164h11l114 -155q46 108 46 230q-1 79 -22 158t-61 134t-86 56q-49 -1 -89.5 -56
t-60.5 -133.5t-21 -158.5q1 -80 21.5 -160t60.5 -137t88 -57z" />
    <glyph glyph-name="r" unicode="r" horiz-adv-x="480" 
d="M228 462l212 -462h-43l-211 461h-53v-461h-43v716h117q51 0 87 -37.5t36 -90.5q0 -46 -28.5 -81.5t-73.5 -44.5zM133 708v-239h74q36 0 56 33.5t20 85.5q0 54 -22 87t-54 33h-74z" />
    <glyph glyph-name="s" unicode="s" horiz-adv-x="476" 
d="M131 490q27 -30 110 -58.5t109 -51.5q48 -44 60 -111t-6.5 -125.5t-63 -100.5t-99.5 -42q-30 0 -57.5 11t-46 26.5t-32 31t-19.5 26.5l-7 11h9q2 -4 6.5 -10.5t19.5 -24t31.5 -30.5t42.5 -23.5t53 -10.5q53 0 90 43t48 99t-6.5 114t-64.5 86q-33 19 -86 36.5t-74 33.5
q-83 63 -68 155q10 57 51.5 99.5t99.5 42.5q25 0 48 -10.5t37 -25.5t25 -30.5t15 -26.5l5 -10h-8q-2 4 -5 10.5t-14.5 23t-24.5 29.5t-34 23.5t-43 10.5q-36 0 -67 -24t-46 -58t-13 -73t25 -66z" />
    <glyph glyph-name="t" unicode="t" horiz-adv-x="410" 
d="M370 708h-154v-708h-42v708h-154v8h350v-8z" />
    <glyph glyph-name="u" unicode="u" horiz-adv-x="511" 
d="M431 716l-1 -504q0 -4 -0.5 -12t-4 -30t-9.5 -42t-19 -44.5t-30.5 -42.5t-46 -30t-64.5 -12q-48 0 -84 22t-52.5 53.5t-26.5 62.5t-11 53l-2 22v504h43v-503q0 -31 1 -47.5t4.5 -45.5t12 -45t22.5 -34t37.5 -26t55.5 -8q45 0 79 21t50 51t25 60.5t10 51.5l2 21v504h9z
" />
    <glyph glyph-name="v" unicode="v" horiz-adv-x="416" 
d="M368 717h8l-166 -717l-174 717h44l147 -606z" />
    <glyph glyph-name="w" unicode="w" horiz-adv-x="539" 
d="M509 717l-167 -717l-60 250l-58 -250l-174 717h44l147 -606l37 157l-110 449h45l86 -356l83 356h8l-86 -373l56 -233l141 606h8z" />
    <glyph glyph-name="x" unicode="x" horiz-adv-x="498" 
d="M438 0h-46l-139 328l-156 -328h-9l160 338l-160 379h46l139 -328l156 328h9l-161 -338z" />
    <glyph glyph-name="y" unicode="y" horiz-adv-x="414" 
d="M374 717h8l-154 -260v-457h-43v457l-153 260h43l150 -255z" />
    <glyph glyph-name="z" unicode="z" horiz-adv-x="449" 
d="M399 0h-349l303 707h-303v8h349l-303 -707h303v-8z" />
    <glyph glyph-name="braceleft" unicode="{" horiz-adv-x="342" 
d="M120 401v7q5 0 19 7q51 30 41 113q-1 6 -4 33.5t-3.5 37.5t-1.5 33t0.5 37t6 32.5t11.5 33.5q22 50 83 73v-5l-16 -8t-28.5 -25.5t-24.5 -45.5q-8 -34 5.5 -95t14.5 -77q1 -36 -8 -64.5t-25.5 -45t-30 -25t-27.5 -12.5q14 -5 27.5 -13.5t30 -25t25.5 -45t8 -64.5
q-1 -16 -14.5 -77t-5.5 -95q6 -25 23 -44.5t32 -26.5l14 -8v-5q-61 23 -83 73q-7 15 -11.5 34t-6 32.5t-0.5 37t1.5 33t3.5 37.5t4 33q10 83 -41 113q-12 7 -19 7z" />
    <glyph glyph-name="bar" unicode="|" horiz-adv-x="299" 
d="M117 -54v910h37v-910h-37z" />
    <glyph glyph-name="braceright" unicode="}" horiz-adv-x="342" 
d="M222 407v-7q-5 0 -19 -7q-51 -30 -41 -113q1 -6 4 -33.5t3.5 -37.5t1.5 -33t-0.5 -37t-6 -32.5t-11.5 -33.5q-22 -50 -83 -73v5l16 8t28.5 25.5t24.5 45.5q8 34 -5.5 95t-14.5 77q-1 36 8 64.5t25.5 45t30 25t27.5 12.5q-14 5 -27.5 13.5t-30 25t-25.5 45t-8 64.5
q1 16 14.5 77t5.5 95q-6 25 -23 44.5t-32 26.5l-14 8v5q61 -23 83 -73q7 -15 11.5 -34t6 -32.5t0.5 -37t-1.5 -33t-3.5 -37.5t-4 -33q-10 -83 41 -113q12 -7 19 -7z" />
    <glyph glyph-name="asciitilde" unicode="~" horiz-adv-x="380" 
d="M293 356q-2 -26 -16 -42t-39 -16q-15 0 -42 14.5t-43 14.5q-24 0 -26 -30h-30q0 22 15.5 40.5t38.5 18.5q15 0 42 -14.5t43 -14.5q24 0 26 29h31z" />
    <glyph glyph-name="exclamdown" unicode="&#xa1;" horiz-adv-x="167" 
d="M107 565v-565h-48v565h48zM84 707q-20 1 -33.5 14t-13.5 32t14.5 33t32.5 14q19 0 32 -14.5t13 -32.5q0 -19 -13.5 -32.5t-31.5 -13.5z" />
    <glyph glyph-name="cent" unicode="&#xa2;" horiz-adv-x="507" 
d="M311 6q43 5 83.5 29t65.5 61h8q-26 -35 -53 -56q-49 -37 -104 -40v-62h-10v62q-52 0 -96.5 25t-72 66t-45 92t-15.5 104t16 102q25 76 80 126.5t133 54.5v62h10v-63q102 -2 157 -95h-8q-25 40 -65 64.5t-84 25.5v-558zM124 287q0 -55 17 -114.5t59.5 -110.5t100.5 -56
v559h-1q-55 0 -97 -50.5t-60 -111.5t-19 -116z" />
    <glyph glyph-name="sterling" unicode="&#xa3;" horiz-adv-x="551" 
d="M188 10h343v-10h-391v462h-93v10h93v214q0 24 12 45q5 11 17.5 24.5t42 29t64.5 15.5h156v-9h-156q-38 0 -63 -29t-25 -76v-214h201v-10h-201v-452z" />
    <glyph glyph-name="currency" unicode="&#xa4;" horiz-adv-x="510" 
d="M472 220l-7 -8l-58 58q-6 -12 -22 -34q-53 -65 -126.5 -67t-131.5 67q-13 18 -23 35l-59 -59l-7 8l62 61q-30 64 -24 136.5t46 137.5l-62 62l7 7l61 -61q22 31 56 50.5t72 19.5q70 0 128 -68l59 59l7 -7l-61 -61q41 -57 46 -133t-23 -144zM358 250q37 68 38 149.5
t-38 152.5q-42 70 -99.5 73.5t-103.5 -73.5q-30 -48 -37 -110t8 -119q12 -46 38 -83.5t58 -56.5t69 -3.5t67 70.5z" />
    <glyph glyph-name="yen" unicode="&#xa5;" horiz-adv-x="456" 
d="M381 501h-129v-73h129v-10h-129v-418h-48v418h-124v10h124v73h-124v10h123l-170 289h48l167 -284l167 284h8l-170 -289h128v-10z" />
    <glyph glyph-name="section" unicode="&#xa7;" horiz-adv-x="628" 
d="M589 226q0 -55 -18 -106t-58 -91.5t-94 -52.5q-18 -93 -98.5 -149t-166.5 -11q-61 34 -102 100h10q39 -61 98 -93q77 -43 142 5t84 136q21 85 -22 164q-21 38 -59 60t-97 41q-75 25 -120.5 79t-33.5 130q13 63 54 105t106 53q0 38 20 77t52 65q45 35 98 35q65 0 110 -58
q19 -23 35 -57h-9q-55 108 -135 108q-72 0 -113 -64q-39 -61 -25 -128q9 -46 45.5 -71.5t98.5 -47.5q97 -33 145.5 -83.5t52.5 -145.5zM421 -16q45 10 77 46.5t44.5 83.5t8.5 98.5t-25 91.5q-22 38 -58 58.5t-98 42.5q-144 46 -158 184q-37 -4 -68.5 -32t-48 -64.5t-14 -78
t29.5 -70.5q26 -31 71.5 -48.5t94.5 -33t78 -41.5q92 -85 66 -237z" />
    <glyph glyph-name="copyright" unicode="&#xa9;" horiz-adv-x="537" 
d="M76 569q0 89 56 159.5t135 70.5q83 0 138.5 -72.5t55.5 -157.5q0 -88 -56 -158t-138 -70q-83 0 -137 72.5t-54 155.5zM265 789q-48 -6 -83.5 -45.5t-51 -86t-15.5 -88.5q0 -43 17.5 -92t54 -87t80.5 -38q48 4 85.5 44.5t54 87.5t16.5 87q0 79 -46 148.5t-112 69.5z
M274 417q53 0 84 45h10q-38 -54 -94 -54q-51 0 -92 48q-37 48 -37 112t37 112t92 48q54 0 94 -54h-11q-31 45 -83 45q-42 0 -70.5 -47t-28.5 -103t28.5 -104t70.5 -48z" />
    <glyph glyph-name="guillemotleft" unicode="&#xab;" horiz-adv-x="741" 
d="M439 572l-343 -287l343 -286h-64l-343 286l343 287h64zM658 572l-343 -287l343 -286h-64l-343 286l343 287h64z" />
    <glyph glyph-name="registered" unicode="&#xae;" horiz-adv-x="537" 
d="M76 569q0 89 56 159.5t135 70.5q83 0 138.5 -72.5t55.5 -157.5q0 -88 -56 -158t-138 -70q-83 0 -137 72.5t-54 155.5zM265 789q-48 -6 -83.5 -45.5t-51 -86t-15.5 -88.5q0 -43 17.5 -92t54 -87t80.5 -38q48 4 85.5 44.5t54 87.5t16.5 87q0 79 -46 148.5t-112 69.5z
M287 554l66 -147h-32l-66 144h-38v-149h-31v338h87q37 0 63.5 -28.5t26.5 -66.5q0 -33 -21 -58.5t-55 -32.5zM217 735v-179h56q26 0 41 25.5t15 63.5q0 40 -16.5 65t-39.5 25h-56z" />
    <glyph glyph-name="degree" unicode="&#xb0;" horiz-adv-x="345" 
d="M77 685q0 44 28 79t67 35q41 0 68.5 -36t27.5 -78q0 -44 -27.5 -78.5t-68.5 -34.5q-42 0 -68.5 36t-26.5 77zM171 794q-60 -7 -60 -109q0 -39 14.5 -73.5t46.5 -34.5q34 3 47 37t13 72q0 43 -14.5 75.5t-46.5 32.5z" />
    <glyph glyph-name="mu" unicode="&#xb5;" horiz-adv-x="526" 
d="M117 -202v776h48v-349q5 -96 35 -155.5t89 -59.5q47 0 83 27.5t52 65.5q9 22 9 58v413h48v-560h-48v79q-60 -92 -167 -92q-68 0 -101 41v-244h-48z" />
    <glyph glyph-name="paragraph" unicode="&#xb6;" horiz-adv-x="456" 
d="M159 800h177v-800h-10v794h-36v-794h-48v515h-102q-49 5 -83.5 47.5t-34.5 94.5q0 58 39 99.5t98 43.5z" />
    <glyph glyph-name="guillemotright" unicode="&#xbb;" horiz-adv-x="741" 
d="M302 1l343 287l-343 286h64l343 -286l-343 -287h-64zM83 1l343 287l-343 286h64l343 -286l-343 -287h-64z" />
    <glyph glyph-name="questiondown" unicode="&#xbf;" horiz-adv-x="344" 
d="M70 31q-43 34 -43 82q0 22 15 52q16 26 39.5 68t63 135t39.5 142l1 50v0h43q6 -109 -22 -165q-126 -250 -126 -282q0 -47 25 -75.5t62 -28.5h157v-9h-157q-57 0 -97 31zM205 707q-19 0 -33 13t-14 33q0 18 14 32.5t33 14.5q18 0 32 -14t14 -33q0 -18 -13.5 -32t-32.5 -14
z" />
    <glyph glyph-name="Agrave" unicode="&#xc0;" horiz-adv-x="452" 
d="M277 886h-44l-111 121h45zM367 0l-92 377h-141l-88 -377h-9l186 800l193 -800h-49zM136 386h137l-70 290z" />
    <glyph glyph-name="Aacute" unicode="&#xc1;" horiz-adv-x="452" 
d="M219 885h-44l110 121h45zM367 0l-92 377h-141l-88 -377h-9l186 800l193 -800h-49zM136 386h137l-70 290z" />
    <glyph glyph-name="Acircumflex" unicode="&#xc2;" horiz-adv-x="452" 
d="M224 956l-90 -97h-44l134 146l132 -145h-44zM367 0l-92 377h-141l-88 -377h-9l186 800l193 -800h-49zM136 386h137l-70 290z" />
    <glyph glyph-name="Atilde" unicode="&#xc3;" horiz-adv-x="452" 
d="M320 943q-2 -26 -16 -42t-39 -16q-15 0 -42 14.5t-43 14.5q-24 0 -26 -30h-30q0 22 15.5 40.5t38.5 18.5q16 0 43 -14.5t42 -14.5q24 0 26 29h31zM367 0l-92 377h-141l-88 -377h-9l186 800l193 -800h-49zM136 386h137l-70 290z" />
    <glyph glyph-name="Adieresis" unicode="&#xc4;" horiz-adv-x="452" 
d="M153 886h-13q-25 2 -25 25q0 11 7.5 18t17.5 7h13q25 -2 25 -25q0 -11 -7.5 -18t-17.5 -7zM316 886h-13q-25 2 -25 25q0 11 7.5 18t17.5 7h13q25 -2 25 -25q0 -11 -7.5 -18t-17.5 -7zM367 0l-92 377h-141l-88 -377h-9l186 800l193 -800h-49zM136 386h137l-70 290z" />
    <glyph glyph-name="Aring" unicode="&#xc5;" horiz-adv-x="452" 
d="M168 927q0 26 16.5 46.5t39.5 20.5q24 0 40 -21.5t16 -45.5q0 -26 -16 -46t-40 -20q-25 0 -40.5 21t-15.5 45zM224 987q-36 0 -36 -60q0 -23 8.5 -41.5t27.5 -18.5q35 2 35 61t-35 59zM367 0l-92 377h-141l-88 -377h-9l186 800l193 -800h-49zM136 386h137l-70 290z" />
    <glyph glyph-name="AE" unicode="&#xc6;" horiz-adv-x="597" 
d="M577 791h-290v-256h290v-9h-290v-517h290v-9h-338v377h-88l-88 -377h-9l185 800h338v-9zM153 386h86v375z" />
    <glyph glyph-name="Ccedilla" unicode="&#xc7;" horiz-adv-x="567" 
d="M316 8q43 0 92.5 34t80.5 93h8q-28 -52 -57 -79q-55 -53 -120 -55q18 -7 36 -28q25 -30 24.5 -71.5t-24.5 -72.5q-23 -30 -59 -30q-35 0 -60 35h8q20 -28 52 -28q27 0 46 29.5t19 65.5q0 34 -17 65t-41 35q-93 8 -162 119q-72 119 -71.5 278.5t71.5 281.5q72 120 174 120
q66 0 124 -56q29 -27 57 -79h-10q-31 59 -79.5 93t-91.5 34q-52 0 -96.5 -61t-68 -149.5t-24.5 -178.5q1 -90 24.5 -180t68 -152.5t96.5 -62.5z" />
    <glyph glyph-name="Egrave" unicode="&#xc8;" horiz-adv-x="503" 
d="M143 9h290v-9h-338v800h338v-9h-290v-256h290v-9h-290v-517zM313 886h-44l-111 121h45z" />
    <glyph glyph-name="Eacute" unicode="&#xc9;" horiz-adv-x="503" 
d="M143 9h290v-9h-338v800h338v-9h-290v-256h290v-9h-290v-517zM256 885h-44l110 121h45z" />
    <glyph glyph-name="Ecircumflex" unicode="&#xca;" horiz-adv-x="503" 
d="M143 9h290v-9h-338v800h338v-9h-290v-256h290v-9h-290v-517zM266 956l-90 -97h-44l134 146l132 -145h-44z" />
    <glyph glyph-name="Edieresis" unicode="&#xcb;" horiz-adv-x="503" 
d="M143 9h290v-9h-338v800h338v-9h-290v-256h290v-9h-290v-517zM194 886h-13q-25 2 -25 25q0 11 7.5 18t17.5 7h13q25 -2 25 -25q0 -11 -7.5 -18t-17.5 -7zM357 886h-13q-25 2 -25 25q0 11 7.5 18t17.5 7h13q25 -2 25 -25q0 -11 -7.5 -18t-17.5 -7z" />
    <glyph glyph-name="Igrave" unicode="&#xcc;" horiz-adv-x="238" 
d="M154 0v800h48v-800h-48zM250 886h-44l-111 121h45z" />
    <glyph glyph-name="Iacute" unicode="&#xcd;" horiz-adv-x="238" 
d="M121 0v800h48v-800h-48zM139 885h-44l110 121h45z" />
    <glyph glyph-name="Icircumflex" unicode="&#xce;" horiz-adv-x="238" 
d="M203 0v800h48v-800h-48zM229 956l-90 -97h-44l134 146l132 -145h-44z" />
    <glyph glyph-name="Idieresis" unicode="&#xcf;" horiz-adv-x="238" 
d="M182 0v800h48v-800h-48zM133 886h-13q-25 2 -25 25q0 11 7.5 18t17.5 7h13q25 -2 25 -25q0 -11 -7.5 -18t-17.5 -7zM296 886h-13q-25 2 -25 25q0 11 7.5 18t17.5 7h13q25 -2 25 -25q0 -11 -7.5 -18t-17.5 -7z" />
    <glyph glyph-name="Ntilde" unicode="&#xd1;" horiz-adv-x="566" 
d="M486 0l-382 781v-781h-9v800h53l329 -672v672h9v-800zM382 943q-2 -26 -16 -42t-39 -16q-15 0 -42 14.5t-43 14.5q-24 0 -26 -30h-30q0 22 15.5 40.5t38.5 18.5q16 0 43 -14.5t42 -14.5q24 0 26 29h31z" />
    <glyph glyph-name="Ograve" unicode="&#xd2;" 
d="M375 886h-44l-111 121h45zM490 680q71 -122 71.5 -281.5t-71.5 -278.5q-72 -115 -173 -119q-101 0 -175 119q-72 119 -71.5 278.5t71.5 281.5q69 116 175 120q52 0 96.5 -33.5t76.5 -86.5zM318 9q58 1 102.5 64.5t64.5 151t21 178.5q-1 90 -23 177.5t-66.5 149
t-100.5 62.5q-57 -2 -101.5 -63.5t-65.5 -148t-22 -177.5q2 -92 24 -180.5t67 -151t100 -62.5z" />
    <glyph glyph-name="Oacute" unicode="&#xd3;" 
d="M310 885h-44l110 121h45zM490 680q71 -122 71.5 -281.5t-71.5 -278.5q-72 -115 -173 -119q-101 0 -175 119q-72 119 -71.5 278.5t71.5 281.5q69 116 175 120q52 0 96.5 -33.5t76.5 -86.5zM318 9q58 1 102.5 64.5t64.5 151t21 178.5q-1 90 -23 177.5t-66.5 149
t-100.5 62.5q-57 -2 -101.5 -63.5t-65.5 -148t-22 -177.5q2 -92 24 -180.5t67 -151t100 -62.5z" />
    <glyph glyph-name="Ocircumflex" unicode="&#xd4;" 
d="M319 956l-90 -97h-44l134 146l132 -145h-44zM490 680q71 -122 71.5 -281.5t-71.5 -278.5q-72 -115 -173 -119q-101 0 -175 119q-72 119 -71.5 278.5t71.5 281.5q69 116 175 120q52 0 96.5 -33.5t76.5 -86.5zM318 9q58 1 102.5 64.5t64.5 151t21 178.5q-1 90 -23 177.5
t-66.5 149t-100.5 62.5q-57 -2 -101.5 -63.5t-65.5 -148t-22 -177.5q2 -92 24 -180.5t67 -151t100 -62.5z" />
    <glyph glyph-name="Otilde" unicode="&#xd5;" 
d="M413 943q-2 -26 -16 -42t-39 -16q-15 0 -42 14.5t-43 14.5q-24 0 -26 -30h-30q0 22 15.5 40.5t38.5 18.5q15 0 42 -14.5t43 -14.5q24 0 26 29h31zM490 680q71 -122 71.5 -281.5t-71.5 -278.5q-72 -115 -173 -119q-101 0 -175 119q-72 119 -71.5 278.5t71.5 281.5
q69 116 175 120q52 0 96.5 -33.5t76.5 -86.5zM318 9q58 1 102.5 64.5t64.5 151t21 178.5q-1 90 -23 177.5t-66.5 149t-100.5 62.5q-57 -2 -101.5 -63.5t-65.5 -148t-22 -177.5q2 -92 24 -180.5t67 -151t100 -62.5z" />
    <glyph glyph-name="Odieresis" unicode="&#xd6;" 
d="M245 886h-13q-25 2 -25 25q0 11 7.5 18t17.5 7h13q25 -2 25 -25q0 -11 -7.5 -18t-17.5 -7zM408 886h-13q-25 2 -25 25q0 11 7.5 18t17.5 7h13q25 -2 25 -25q0 -11 -7.5 -18t-17.5 -7zM490 680q71 -122 71.5 -281.5t-71.5 -278.5q-72 -115 -173 -119q-101 0 -175 119
q-72 119 -71.5 278.5t71.5 281.5q69 116 175 120q52 0 96.5 -33.5t76.5 -86.5zM318 9q58 1 102.5 64.5t64.5 151t21 178.5q-1 90 -23 177.5t-66.5 149t-100.5 62.5q-57 -2 -101.5 -63.5t-65.5 -148t-22 -177.5q2 -92 24 -180.5t67 -151t100 -62.5z" />
    <glyph glyph-name="Oslash" unicode="&#xd8;" 
d="M158 0h-47l43 100q-54 67 -73.5 174t-3 216.5t63.5 189.5q69 116 175 120q61 0 116 -50l22 50h47l-36 -85q87 -116 95 -289t-71 -306q-72 -115 -174 -119q-71 0 -130 61zM310 9q57 0 102 62t68 150.5t25 181.5q-2 151 -58 270l-247 -575q49 -85 110 -89zM126 403
q0 -134 49 -253l245 571q-47 68 -101 71q-55 -2 -100.5 -63.5t-68.5 -149t-24 -176.5z" />
    <glyph glyph-name="Ugrave" unicode="&#xd9;" horiz-adv-x="552" 
d="M472 799l-1 -562q0 -5 -0.5 -13.5t-4.5 -33.5t-10.5 -47.5t-21 -49.5t-34.5 -47t-52 -33.5t-72 -13.5q-53 0 -93 24.5t-59 59.5t-30 70t-12 59l-2 25v562h48v-561q0 -35 1 -53.5t5 -50.5t13.5 -50t25 -38t42 -29t61.5 -9q51 0 88.5 23.5t55.5 57.5t28.5 67.5t11.5 57.5
l2 23v562h10zM338 886h-44l-111 121h45z" />
    <glyph glyph-name="Uacute" unicode="&#xda;" horiz-adv-x="552" 
d="M472 799l-1 -562q0 -5 -0.5 -13.5t-4.5 -33.5t-10.5 -47.5t-21 -49.5t-34.5 -47t-52 -33.5t-72 -13.5q-53 0 -93 24.5t-59 59.5t-30 70t-12 59l-2 25v562h48v-561q0 -35 1 -53.5t5 -50.5t13.5 -50t25 -38t42 -29t61.5 -9q51 0 88.5 23.5t55.5 57.5t28.5 67.5t11.5 57.5
l2 23v562h10zM265 885h-44l110 121h45z" />
    <glyph glyph-name="Ucircumflex" unicode="&#xdb;" horiz-adv-x="552" 
d="M472 799l-1 -562q0 -5 -0.5 -13.5t-4.5 -33.5t-10.5 -47.5t-21 -49.5t-34.5 -47t-52 -33.5t-72 -13.5q-53 0 -93 24.5t-59 59.5t-30 70t-12 59l-2 25v562h48v-561q0 -35 1 -53.5t5 -50.5t13.5 -50t25 -38t42 -29t61.5 -9q51 0 88.5 23.5t55.5 57.5t28.5 67.5t11.5 57.5
l2 23v562h10zM288 956l-90 -97h-44l134 146l132 -145h-44z" />
    <glyph glyph-name="Udieresis" unicode="&#xdc;" horiz-adv-x="552" 
d="M472 799l-1 -562q0 -5 -0.5 -13.5t-4.5 -33.5t-10.5 -47.5t-21 -49.5t-34.5 -47t-52 -33.5t-72 -13.5q-53 0 -93 24.5t-59 59.5t-30 70t-12 59l-2 25v562h48v-561q0 -35 1 -53.5t5 -50.5t13.5 -50t25 -38t42 -29t61.5 -9q51 0 88.5 23.5t55.5 57.5t28.5 67.5t11.5 57.5
l2 23v562h10zM197 886h-13q-25 2 -25 25q0 11 7.5 18t17.5 7h13q25 -2 25 -25q0 -11 -7.5 -18t-17.5 -7zM360 886h-13q-25 2 -25 25q0 11 7.5 18t17.5 7h13q25 -2 25 -25q0 -11 -7.5 -18t-17.5 -7z" />
    <glyph glyph-name="Yacute" unicode="&#xdd;" horiz-adv-x="455" 
d="M414 800h8l-171 -290v-510h-48v510l-171 290h48l167 -284zM207 885h-44l110 121h45z" />
    <glyph glyph-name="germandbls" unicode="&#xdf;" horiz-adv-x="523" 
d="M413 434q58 -73 58 -176t-64 -179.5t-166 -78.5h-26v8q80 0 127 37q79 56 79 213q0 77 -20 124q-16 36 -44.5 66t-48 48t-19.5 31t19 54t19 76q0 60 -26 98q-26 37 -53 37q-30 0 -50 -25t-27 -54t-7 -56v-657h-51v657q0 61 45 103q43 38 91 38q47 0 88 -38
q45 -42 45 -103q0 -31 -22 -57t-43.5 -44t-21.5 -29q0 -9 20.5 -21.5t50.5 -31.5t47 -40z" />
    <glyph glyph-name="agrave" unicode="&#xe0;" horiz-adv-x="413" 
d="M252 788h-39l-99 107h40zM334 0l-82 337h-126l-79 -337h-8l166 715l173 -715h-44zM128 345h122l-62 260z" />
    <glyph glyph-name="aacute" unicode="&#xe1;" horiz-adv-x="413" 
d="M201 784h-39l98 108h39zM334 0l-82 337h-126l-79 -337h-8l166 715l173 -715h-44zM128 345h122l-62 260z" />
    <glyph glyph-name="acircumflex" unicode="&#xe2;" horiz-adv-x="413" 
d="M205 846l-80 -86h-39l119 129l117 -128h-39zM334 0l-82 337h-126l-79 -337h-8l166 715l173 -715h-44zM128 345h122l-62 260z" />
    <glyph glyph-name="atilde" unicode="&#xe3;" horiz-adv-x="413" 
d="M292 834q-2 -23 -14.5 -37t-34.5 -14q-13 0 -36.5 12.5t-38.5 12.5q-21 0 -23 -26h-26q0 19 13.5 35.5t33.5 16.5q14 0 38 -13t38 -13q21 0 23 26h27zM334 0l-82 337h-126l-79 -337h-8l166 715l173 -715h-44zM128 345h122l-62 260z" />
    <glyph glyph-name="adieresis" unicode="&#xe4;" horiz-adv-x="413" 
d="M144 781h-11q-22 1 -22 22q0 10 6.5 16t15.5 6h11q22 -2 22 -22q0 -9 -6.5 -15.5t-15.5 -6.5zM288 781h-12q-22 2 -22 22q0 9 6.5 15.5t15.5 6.5h12q22 -2 22 -22q0 -9 -6.5 -15.5t-15.5 -6.5zM334 0l-82 337h-126l-79 -337h-8l166 715l173 -715h-44zM128 345h122
l-62 260z" />
    <glyph glyph-name="aring" unicode="&#xe5;" horiz-adv-x="413" 
d="M161 822q0 23 14.5 41t35.5 18t35 -19t14 -40q0 -23 -14 -41t-35 -18q-22 0 -36 19t-14 40zM211 875q-32 0 -32 -53q0 -54 32 -54q31 2 31 55q0 52 -31 52zM334 0l-82 337h-126l-79 -337h-8l166 715l173 -715h-44zM128 345h122l-62 260z" />
    <glyph glyph-name="ae" unicode="&#xe6;" horiz-adv-x="538" 
d="M518 700h-257v-227h257v-7h-257v-458h257v-8h-299l1 336h-78l-79 -336h-8l164 708h299v-8zM143 343h77l-1 330z" />
    <glyph glyph-name="ccedilla" unicode="&#xe7;" horiz-adv-x="501" 
d="M283 -11q39 0 83.5 30.5t73.5 84.5h7q-24 -45 -51 -72q-52 -49 -109 -50q16 -5 32 -25q22 -27 22 -65t-22 -66q-20 -27 -53 -27q-31 0 -55 32h8q18 -26 47 -26q24 0 41.5 27.5t17.5 59.5q0 31 -15.5 59t-37.5 31q-83 8 -147 108q-65 109 -64.5 253.5t64.5 255.5
q65 109 158 109q60 0 113 -51q27 -25 51 -72h-9q-29 54 -72.5 85t-82.5 31q-48 0 -88 -55.5t-61.5 -136.5t-22.5 -162q1 -81 22.5 -162.5t61.5 -138.5t88 -57z" />
    <glyph glyph-name="egrave" unicode="&#xe8;" horiz-adv-x="463" 
d="M133 8h257v-8h-300v710h300v-8h-257v-227h257v-8h-257v-459zM283 786h-39l-98 108h40z" />
    <glyph glyph-name="eacute" unicode="&#xe9;" horiz-adv-x="463" 
d="M133 8h257v-8h-300v710h300v-8h-257v-227h257v-8h-257v-459zM233 785h-39l97 108h40z" />
    <glyph glyph-name="ecircumflex" unicode="&#xea;" horiz-adv-x="463" 
d="M133 8h257v-8h-300v710h300v-8h-257v-227h257v-8h-257v-459zM242 849l-80 -87h-39l119 130l117 -129h-39z" />
    <glyph glyph-name="edieresis" unicode="&#xeb;" horiz-adv-x="463" 
d="M133 8h257v-8h-300v710h300v-8h-257v-227h257v-8h-257v-459zM178 786h-12q-22 2 -22 23q0 9 6.5 15.5t15.5 6.5h12q22 -2 22 -22q0 -10 -6.5 -16.5t-15.5 -6.5zM323 786h-12q-22 2 -22 23q0 10 6.5 16t15.5 6h12q22 -2 22 -22q0 -10 -6.5 -16.5t-15.5 -6.5z" />
    <glyph glyph-name="igrave" unicode="&#xec;" horiz-adv-x="223" 
d="M142 0v709h43v-709h-43zM227 785h-39l-98 107h40z" />
    <glyph glyph-name="iacute" unicode="&#xed;" horiz-adv-x="223" 
d="M113 0v709h43v-709h-43zM129 785h-39l98 107h39z" />
    <glyph glyph-name="icircumflex" unicode="&#xee;" horiz-adv-x="223" 
d="M186 0v708h42v-708h-42zM209 846l-80 -86h-39l119 129l116 -128h-39z" />
    <glyph glyph-name="idieresis" unicode="&#xef;" horiz-adv-x="223" 
d="M167 0v709h43v-709h-43zM124 785h-12q-22 2 -22 22q0 9 6.5 15.5t15.5 6.5h12q22 -2 22 -22q0 -9 -6.5 -15.5t-15.5 -6.5zM268 785h-11q-23 2 -23 22q0 9 7 15.5t16 6.5h11q22 -2 22 -22q0 -10 -6.5 -16t-15.5 -6z" />
    <glyph glyph-name="ntilde" unicode="&#xf1;" horiz-adv-x="520" 
d="M436 0l-338 691v-691h-8v707h47l291 -594v594h8v-707zM344 834q-2 -23 -14.5 -37t-34.5 -14q-13 0 -37 12.5t-38 12.5q-21 0 -23 -26h-27q0 19 14 35.5t34 16.5q14 0 38 -13t37 -13q21 0 23 26h28z" />
    <glyph glyph-name="ograve" unicode="&#xf2;" horiz-adv-x="562" 
d="M329 781h-39l-98 107h40zM430 600q63 -108 63.5 -248.5t-63.5 -245.5q-63 -101 -152 -105q-88 0 -154 105q-64 105 -63.5 245.5t63.5 248.5q59 102 154 106q45 0 84.5 -29.5t67.5 -76.5zM279 8q51 1 90 57t57 133t19 158q-1 79 -20.5 156t-59 131.5t-88.5 55.5
q-74 -3 -120 -110t-47 -233q2 -81 21.5 -159.5t59 -133.5t88.5 -55z" />
    <glyph glyph-name="oacute" unicode="&#xf3;" horiz-adv-x="562" 
d="M272 782h-39l98 107h39zM431 601q63 -108 63.5 -248.5t-63.5 -246.5q-63 -101 -153 -105q-88 0 -154 105q-64 106 -63.5 246.5t63.5 248.5q26 45 65.5 74.5t88.5 31.5q46 0 85.5 -29.5t67.5 -76.5zM279 8q52 1 91 57t57 133.5t18 157.5q0 79 -19.5 156.5t-59.5 132
t-89 55.5q-50 -1 -89.5 -56t-58 -131.5t-19.5 -156.5q2 -81 21.5 -159t59 -133.5t88.5 -55.5z" />
    <glyph glyph-name="ocircumflex" unicode="&#xf4;" horiz-adv-x="562" 
d="M279 841l-79 -85h-39l118 129l116 -128h-38zM430 599q62 -108 62.5 -248t-62.5 -245q-64 -101 -153 -105q-88 0 -154 105q-63 105 -62.5 245t62.5 248q63 102 154 105q89 0 153 -105zM278 8q51 1 90.5 57t57 133t18.5 157q-1 79 -20.5 156t-59 131t-88.5 55
q-50 -1 -89 -55.5t-57.5 -130.5t-19.5 -156q2 -81 21.5 -159t58.5 -133t88 -55z" />
    <glyph glyph-name="otilde" unicode="&#xf5;" horiz-adv-x="562" 
d="M361 828q-5 -51 -48 -51q-13 0 -37 13t-38 13q-21 0 -23 -27h-26q0 20 13.5 36t33.5 16q14 0 38 -12.5t37 -12.5q22 0 23 25h27zM429 597q62 -107 62.5 -247t-62.5 -245q-65 -100 -152 -104q-89 0 -154 104q-63 105 -62.5 245t62.5 247q61 102 154 106q87 0 152 -106z
M278 8q51 1 90 57t56.5 132.5t18.5 156.5q-1 79 -20.5 156t-58.5 131t-88 55q-50 -2 -89 -56t-57.5 -130t-19.5 -156q2 -81 21.5 -158.5t58.5 -132.5t88 -55z" />
    <glyph glyph-name="odieresis" unicode="&#xf6;" horiz-adv-x="562" 
d="M214 780h-11q-22 1 -22 22q0 10 6.5 16t15.5 6h11q22 -2 22 -22q0 -9 -6.5 -15.5t-15.5 -6.5zM357 780h-11q-22 2 -22 22q0 9 6.5 15.5t15.5 6.5h11q22 -2 22 -22q0 -10 -6.5 -16t-15.5 -6zM430 599q62 -108 62.5 -248t-62.5 -245q-64 -101 -153 -105q-88 0 -154 105
q-63 105 -62.5 245t62.5 248q63 102 154 105q89 0 153 -105zM278 8q51 1 90.5 57t57 133t18.5 157q-1 79 -20.5 156t-59 131t-88.5 55q-50 -1 -89 -55.5t-57.5 -130.5t-19.5 -156q2 -81 21.5 -159t58.5 -133t88 -55z" />
    <glyph glyph-name="divide" unicode="&#xf7;" horiz-adv-x="437" 
d="M23 293v48h392v-48h-392zM168 496q1 19 14 32.5t31 13.5q19 0 33 -14t14 -32q0 -20 -14 -33.5t-33 -13.5q-20 0 -32.5 14t-12.5 33zM168 152q1 19 14 32.5t31 13.5q19 0 33 -14t14 -32q0 -20 -14 -33.5t-33 -13.5q-20 0 -32.5 14t-12.5 33z" />
    <glyph glyph-name="oslash" unicode="&#xf8;" horiz-adv-x="562" 
d="M138 0h-42l38 89q-47 60 -64.5 154.5t-2.5 191t56 168.5q62 102 155 106q52 0 103 -44l19 44h42l-32 -75q77 -103 84 -256.5t-63 -271.5q-63 -101 -154 -105q-63 0 -115 54zM273 8q50 0 90 55t60.5 133.5t21.5 160.5q-2 136 -51 239l-219 -509q44 -75 98 -79zM110 357
q0 -123 43 -224l217 506q-42 60 -89 63q-73 -3 -122 -112t-49 -233z" />
    <glyph glyph-name="ugrave" unicode="&#xf9;" horiz-adv-x="511" 
d="M427 708l-1 -498q0 -4 -0.5 -12t-4 -29.5t-9 -41.5t-18.5 -44.5t-30.5 -42t-46 -29.5t-63.5 -12q-48 0 -83 21.5t-52 52.5t-26.5 62.5t-10.5 52.5l-2 22v498h43v-497q0 -30 1 -47.5t4 -45.5t11.5 -44t22.5 -33.5t37.5 -25.5t54.5 -8q45 0 78.5 21t49 50.5t24.5 59.5
t10 51l2 21v498h9zM309 785h-39l-99 107h40z" />
    <glyph glyph-name="uacute" unicode="&#xfa;" horiz-adv-x="511" 
d="M428 709l-1 -499q0 -4 -0.5 -12t-4 -29.5t-9 -41.5t-18.5 -44.5t-30.5 -42t-46.5 -29.5t-64 -12q-48 0 -83 21.5t-52 52.5t-26.5 62.5t-10.5 52.5l-2 22v499h43v-498q0 -36 1 -56.5t8 -53t20 -50t39 -31t63 -13.5q45 0 78.5 21t49.5 50.5t25 59.5t11 51l1 21v499h9z
M244 785h-39l98 108h40z" />
    <glyph glyph-name="ucircumflex" unicode="&#xfb;" horiz-adv-x="511" 
d="M428 708l-1 -498q0 -4 -0.5 -12t-4 -29.5t-9 -41.5t-18.5 -44.5t-30.5 -42t-46.5 -29.5t-64 -12q-48 0 -83 21.5t-52 52.5t-26.5 62.5t-10.5 52.5l-2 22v498h43v-497q0 -30 1 -47.5t4 -45.5t11.5 -44t22.5 -33.5t37.5 -25.5t54.5 -8q45 0 78.5 21t49 50.5t25 59.5
t11.5 51l1 21v498h9zM264 848l-79 -86h-39l118 129l117 -129h-39z" />
    <glyph glyph-name="udieresis" unicode="&#xfc;" horiz-adv-x="511" 
d="M427 707l-1 -497q0 -4 -0.5 -12t-4 -29.5t-9 -41.5t-18.5 -44.5t-30.5 -42t-46.5 -29.5t-64 -12q-34 0 -62.5 11.5t-46 30t-30.5 41t-19 45.5t-10 41.5t-5 29.5v12v497h42v-497q0 -31 1 -47t4.5 -44.5t12 -44.5t22.5 -33.5t37 -25.5t54 -8q45 0 78.5 21t49.5 50.5
t25 59.5t10 51l2 21v497h9zM184 784h-12q-22 2 -22 22q0 9 6.5 15.5t15.5 6.5h12q22 -2 22 -22q0 -9 -6.5 -15.5t-15.5 -6.5zM328 784h-12q-22 2 -22 22q0 9 6.5 15.5t15.5 6.5h12q22 -2 22 -22q0 -9 -6.5 -15.5t-15.5 -6.5z" />
    <glyph glyph-name="yacute" unicode="&#xfd;" horiz-adv-x="414" 
d="M371 710h7l-152 -257v-453h-42v453l-152 257h43l148 -252zM187 785h-39l98 108h40z" />
    <glyph glyph-name="ydieresis" unicode="&#xff;" horiz-adv-x="414" 
d="M370 708h7l-151 -257v-451h-43v451l-151 257h42l148 -252zM135 784h-12q-22 2 -22 22q0 9 6.5 15.5t15.5 6.5h12q22 -2 22 -22q0 -9 -6.5 -15.5t-15.5 -6.5zM279 784h-12q-22 2 -22 22q0 9 6.5 15.5t15.5 6.5h12q22 -2 22 -22q0 -9 -6.5 -15.5t-15.5 -6.5z" />
    <glyph glyph-name="OE" unicode="&#x152;" horiz-adv-x="912" 
d="M597 9h290v-9h-338v165q-27 -65 -78.5 -111.5t-118.5 -52.5q-102 0 -175 119q-72 119 -71.5 278.5t71.5 281.5q68 116 175 120q66 -1 117 -50t80 -118v168h338v-9h-290v-256h290v-9h-290v-517zM357 9q51 3 94.5 66t66 151.5t23.5 176.5q-1 89 -24 176.5t-66.5 149
t-95.5 63.5q-55 -2 -100.5 -63.5t-68.5 -149t-24 -176.5q2 -92 25 -181.5t68.5 -152t101.5 -60.5z" />
    <glyph glyph-name="oe" unicode="&#x153;" horiz-adv-x="818" 
d="M536 8h257v-8h-299v146q-24 -58 -69 -99t-105 -46q-91 0 -155 105q-64 106 -63.5 246.5t63.5 249.5q61 102 155 106q58 -1 103.5 -44t70.5 -105v149h299v-8h-257v-227h257v-8h-257v-457zM324 8q46 3 84 58.5t58 133.5t21 157q-1 79 -21 156.5t-59 131.5t-85 56
q-49 -2 -89 -56t-60.5 -131.5t-20.5 -156.5q1 -81 21.5 -160.5t60.5 -135t90 -53.5z" />
    <glyph glyph-name="Ydieresis" unicode="&#x178;" horiz-adv-x="455" 
d="M414 800h8l-171 -290v-510h-48v510l-171 290h48l167 -284zM148 886h-13q-25 2 -25 25q0 11 7.5 18t17.5 7h13q25 -2 25 -25q0 -11 -7.5 -18t-17.5 -7zM311 886h-13q-25 2 -25 25q0 11 7.5 18t17.5 7h13q25 -2 25 -25q0 -11 -7.5 -18t-17.5 -7z" />
    <glyph glyph-name="endash" unicode="&#x2013;" horiz-adv-x="628" 
d="M117 293v48h392v-48h-392z" />
    <glyph glyph-name="quoteleft" unicode="&#x2018;" horiz-adv-x="241" 
d="M129 572q-33 1 -53 26t-20 58q0 69 86 141l20 -1q-39 -34 -62 -69q-44 -64 -8 -100q5 20 19.5 33t33.5 13t31.5 -14.5t12.5 -32.5q0 -25 -18 -39.5t-42 -14.5z" />
    <glyph glyph-name="quoteright" unicode="&#x2019;" horiz-adv-x="239" 
d="M111 797q33 -1 52.5 -26t19.5 -58q0 -68 -85 -141l-20 1q38 32 62 68q18 29 20.5 48.5t-12.5 52.5q-5 -20 -19.5 -33t-34.5 -13t-31.5 14t-11.5 33q0 25 18 39.5t42 14.5z" />
    <glyph glyph-name="quotedblleft" unicode="&#x201c;" horiz-adv-x="437" 
d="M156 572q-33 1 -53 26t-20 58q0 69 86 141l20 -1q-39 -34 -62 -69q-44 -64 -8 -100q5 20 19.5 33t33.5 13t31.5 -14.5t12.5 -32.5q0 -25 -18 -39.5t-42 -14.5zM295 572q-33 1 -52.5 26t-19.5 58q0 69 85 141l20 -1q-39 -34 -62 -69q-44 -64 -8 -100q5 21 20 33.5t34 12.5
t31 -14.5t12 -32.5q0 -25 -18 -39.5t-42 -14.5z" />
    <glyph glyph-name="quotedblright" unicode="&#x201d;" horiz-adv-x="436" 
d="M143 797q37 0 54.5 -27.5t17.5 -56.5q0 -69 -85 -141l-20 1q12 10 25.5 24t28.5 34t24 39t8 38.5t-16 33.5q-1 -5 -3.5 -12.5t-16.5 -20.5t-34 -13q-19 0 -31 13.5t-12 33.5q0 23 17.5 38.5t42.5 15.5zM282 797q37 0 55 -27.5t18 -56.5q0 -69 -86 -141l-20 1
q12 10 25.5 24t28.5 34t24 39t8 38.5t-16 33.5q-1 -5 -3.5 -12.5t-16 -20.5t-33.5 -13q-18 0 -31 14t-13 33q0 23 17.5 38.5t42.5 15.5z" />
    <glyph glyph-name="perthousand" unicode="&#x2030;" horiz-adv-x="774" 
d="M450 800h47l-343 -800h-47zM205 481q-42 0 -70 48q-29 48 -29 111t29 112q28 48 70 48q41 0 69 -48q29 -49 29 -112t-29 -111q-28 -48 -69 -48zM205 792q-30 -1 -47 -47.5t-17 -104.5t16.5 -103.5t47.5 -47.5q32 1 47 46.5t15 106.5q0 60 -15 104.5t-47 45.5zM470 271
q29 -49 29 -112t-29 -111q-28 -48 -69 -48q-42 0 -70 48q-29 48 -29 111t29 112q28 48 70 48q40 0 69 -48zM401 8q32 1 47 47t15 106q0 59 -16 104t-46 46q-31 -1 -47 -46.5t-16 -105.5t15.5 -105t47.5 -46zM689 271q29 -49 29 -112t-29 -111q-28 -48 -69 -48q-42 0 -70 48
q-29 48 -29 111t29 112q28 48 70 48q40 0 69 -48zM620 8q32 1 47 47t15 106q0 59 -16 104t-46 46q-31 -1 -47 -46.5t-16 -105.5t15.5 -105t47.5 -46z" />
    <glyph glyph-name="guilsinglleft" unicode="&#x2039;" horiz-adv-x="495" 
d="M427 572l-343 -287l343 -286h-64l-343 286l343 287h64z" />
    <glyph glyph-name="guilsinglright" unicode="&#x203a;" horiz-adv-x="495" 
d="M411 286l-343 287h64l343 -287l-343 -286h-64z" />
    <glyph glyph-name="Euro" unicode="&#x20ac;" horiz-adv-x="585" 
d="M332 8q52 0 98.5 37.5t74.5 89.5h8q-75 -134 -181 -134q-57 0 -104 35.5t-75.5 91t-44.5 114t-20 114.5h-35v10h34q-1 27 1 73h-35v10h36q5 51 20.5 107t43.5 113t75 94t104 37q98 0 181 -135h-10q-28 51 -74 89t-97 38q-44 0 -80.5 -38t-57.5 -96t-33 -110.5t-16 -98.5
h209v-10h-210q-3 -37 0 -73h210v-10h-209q3 -47 13.5 -98.5t31 -107t57.5 -95t85 -47.5z" />
    <glyph glyph-name="trademark" unicode="&#x2122;" horiz-adv-x="569" 
d="M233 796h-81v-372h-22v372h-81v4h184v-4zM428 800h22v-376h-22v358l-85 -358l-85 358v-358h-5v376h23l77 -319z" />
    </font>
</defs>
</svg>
